<svg width="44" height="29" viewBox="0 0 44 29" fill="none" xmlns="http://www.w3.org/2000/svg">
<g clip-path="url(#clip0_106_175)">
<path d="M11.1687 24.0146C11.1687 24.9198 10.94 25.7238 10.4825 26.4267C10.0251 27.1296 9.37781 27.6809 8.54075 28.0804C7.7037 28.4752 6.72068 28.6726 5.59164 28.6726C4.45774 28.6726 3.47227 28.4728 2.63522 28.0732C1.79332 27.6736 1.14364 27.1248 0.686183 26.4267C0.228727 25.7238 3.99919e-08 24.9198 0 24.0146C-3.99919e-08 23.1095 0.228727 22.3079 0.686183 21.6098C1.14364 20.9117 1.79332 20.3653 2.63522 19.9705C3.47227 19.5709 4.45774 19.3711 5.59164 19.3711C6.72068 19.3711 7.7037 19.5709 8.54075 19.9705C9.37781 20.3653 10.0251 20.9117 10.4825 21.6098C10.94 22.3079 11.1687 23.1095 11.1687 24.0146ZM10.2416 24.0146C10.2416 23.3117 10.0567 22.681 9.6868 22.1226C9.31697 21.5641 8.78651 21.1236 8.09547 20.801C7.39957 20.4784 6.56498 20.3171 5.59164 20.3171C4.61347 20.3171 3.77643 20.4784 3.08051 20.801C2.3846 21.1236 1.85171 21.5641 1.48186 22.1226C1.112 22.681 0.927074 23.3117 0.927074 24.0146C0.927074 24.7175 1.112 25.3507 1.48186 25.914C1.85171 26.4724 2.3846 26.9153 3.08051 27.2427C3.77643 27.5653 4.61347 27.7266 5.59164 27.7266C6.56011 27.7266 7.39223 27.5653 8.0882 27.2427C8.7841 26.9201 9.31697 26.4796 9.6868 25.9212C10.0567 25.3579 10.2416 24.7223 10.2416 24.0146Z" fill="white"/>
<path d="M0.145996 9.073H11.0227V10.0407L1.91984 16.3886V16.4824H11.0227V17.4646H0.145997V16.5114L9.26341 10.1274V10.048H0.145997L0.145996 9.073Z" fill="white"/>
<path d="M11.0227 6.67527H0.145996V0.428496H1.04387V5.6931H5.10256V0.760696H5.99315V5.6931H10.1321V0.327393H11.0227V6.67527Z" fill="white"/>
<path d="M29.2474 9.8562C27.2369 9.8562 25.6072 11.4685 25.6072 13.4575V29H29.3432C30.5654 29 31.7527 28.852 32.8877 28.5731V13.4575C32.8877 11.4685 31.2579 9.8562 29.2474 9.8562Z" fill="white"/>
<path d="M44 14.5C44 19.9255 40.988 24.6551 36.5278 27.1413V1.85864C40.988 4.34489 44 9.07442 44 14.5Z" fill="white"/>
<path d="M21.9668 0H14.6863V29H21.9668V0Z" fill="white"/>
<path d="M33.0793 3.69608C33.0793 5.73737 31.4066 7.39216 29.3432 7.39216C27.2799 7.39216 25.6072 5.73737 25.6072 3.69608C25.6072 1.65479 27.2799 0 29.3432 0C31.4066 0 33.0793 1.65479 33.0793 3.69608Z" fill="white"/>
</g>
<defs>
<clipPath id="clip0_106_175">
<rect width="44" height="29" fill="white"/>
</clipPath>
</defs>
</svg>
