<svg width="130" height="57" viewBox="0 0 130 57" fill="none" xmlns="http://www.w3.org/2000/svg">
<path d="M0 57H130V0H0V57Z" fill="#007855"/>
<path d="M15.31 42.2001V14.5601H33.97V19.3801H21.16V26.0001H32.99V30.8201H21.16V37.3901H33.97V42.2001H15.31Z" fill="white"/>
<path d="M43.02 14.72L49.7 35.74H49.97L56.65 14.72H63.17L53.64 42.37H46.09L36.56 14.72H43.02Z" fill="white"/>
<path d="M89.55 28.5699C89.55 31.5799 89 34.1499 87.85 36.2899C86.7 38.4199 85.17 40.0099 83.2 41.1099C81.23 42.1999 79.04 42.7499 76.58 42.7499C74.12 42.7499 71.93 42.1999 69.96 41.0499C67.99 39.9599 66.46 38.3099 65.31 36.2299C64.16 34.0999 63.61 31.5799 63.61 28.5699C63.61 25.5599 64.16 22.9899 65.31 20.8499C66.46 18.7199 67.99 17.1299 69.96 16.0299C71.93 14.9399 74.12 14.3899 76.58 14.3899C79.04 14.3899 81.23 14.9399 83.2 16.0299C85.17 17.1199 86.7 18.7699 87.85 20.8499C88.95 22.9899 89.55 25.5099 89.55 28.5699ZM83.64 28.5699C83.64 26.5999 83.37 24.9599 82.76 23.6399C82.16 22.3299 81.39 21.2899 80.3 20.5699C79.26 19.8599 78 19.5299 76.58 19.5299C75.16 19.5299 73.95 19.8599 72.86 20.5699C71.82 21.2799 71 22.2699 70.4 23.6399C69.8 25.0099 69.52 26.6499 69.52 28.5699C69.52 30.5399 69.79 32.1799 70.4 33.4999C71 34.8699 71.82 35.8499 72.86 36.5699C73.9 37.2799 75.16 37.6099 76.58 37.6099C78 37.6099 79.21 37.2799 80.3 36.5699C81.34 35.8599 82.16 34.8699 82.76 33.4999C83.31 32.1299 83.64 30.4899 83.64 28.5699Z" fill="white"/>
<path d="M108 22.6599C107.89 21.5699 107.45 20.7399 106.63 20.1399C105.81 19.5399 104.71 19.2099 103.29 19.2099C102.36 19.2099 101.54 19.3199 100.88 19.5899C100.22 19.8599 99.73 20.2499 99.4 20.6799C99.07 21.1699 98.91 21.6699 98.91 22.2699C98.91 22.7599 99.02 23.1999 99.24 23.5799C99.46 23.9599 99.79 24.2899 100.17 24.5099C100.55 24.7799 101.05 24.9999 101.59 25.1699C102.14 25.3899 102.68 25.5499 103.29 25.6599L105.75 26.2599C106.95 26.5299 108.05 26.8599 109.09 27.3499C110.08 27.7899 110.95 28.3399 111.72 28.9899C112.43 29.6499 113.03 30.4099 113.42 31.2899C113.86 32.1699 114.02 33.2099 114.02 34.3599C114.02 36.0599 113.58 37.5299 112.76 38.7399C111.88 39.9999 110.68 40.9299 109.09 41.6399C107.5 42.2999 105.59 42.6799 103.34 42.6799C101.1 42.6799 99.18 42.3499 97.54 41.6399C95.9 40.9299 94.58 39.9399 93.71 38.5699C92.78 37.1999 92.29 35.5599 92.23 33.5899H97.87C97.92 34.5199 98.2 35.2899 98.69 35.8899C99.18 36.4899 99.78 36.9799 100.61 37.2599C101.38 37.5899 102.31 37.6999 103.29 37.6999C104.28 37.6999 105.15 37.5399 105.86 37.2599C106.57 36.9899 107.17 36.5999 107.56 36.0599C107.94 35.5699 108.16 34.9699 108.16 34.3099C108.16 33.7099 108 33.1599 107.61 32.7199C107.23 32.2799 106.73 31.9499 106.02 31.6299C105.31 31.3599 104.49 31.0799 103.45 30.8099L100.44 30.0399C98.09 29.4899 96.28 28.5599 94.91 27.3599C93.54 26.1599 92.88 24.5099 92.88 22.4899C92.88 20.7899 93.32 19.3699 94.25 18.1099C95.13 16.8499 96.38 15.8699 97.97 15.2099C99.56 14.4999 101.36 14.1699 103.39 14.1699C105.47 14.1699 107.22 14.4999 108.75 15.2099C110.28 15.9199 111.49 16.9099 112.36 18.1099C113.24 19.3699 113.67 20.7899 113.67 22.4299L108 22.6599Z" fill="white"/>
</svg>
